<svg width="274" height="7" viewBox="0 0 274 7" fill="none" xmlns="http://www.w3.org/2000/svg">
<g clip-path="url(#clip0_113_1273)">
<path d="M87.0387 6.99999H0.5V5.97156H86.6011L93.0924 0.0663452H273.5V1.09478H93.5301L87.0387 6.99999Z" fill="#EF1679"/>
<path d="M165.409 4.34597H131.749L128.029 0.96208L128.393 0.663502L131.931 3.88151H165.19L168.982 0.431274L169.347 0.729853L165.409 4.34597Z" fill="#EF1679"/>
<path d="M66.9084 3.78199H64.4651L69.0965 0H71.5399L66.9084 3.78199Z" fill="#EF1679"/>
<path d="M71.3576 3.78199H68.9507L73.5821 0H76.0255L71.3576 3.78199Z" fill="#EF1679"/>
<path d="M75.843 3.78199H73.3997L78.0676 0H80.4745L75.843 3.78199Z" fill="#EF1679"/>
<path d="M80.3286 3.78199H77.8853L82.5167 0H84.9601L80.3286 3.78199Z" fill="#EF1679"/>
<path d="M84.7777 3.78199H82.3708L87.0023 0H89.4092L84.7777 3.78199Z" fill="#EF1679"/>
</g>
<defs>
<clipPath id="clip0_113_1273">
<rect width="273" height="7" fill="white" transform="translate(0.5)"/>
</clipPath>
</defs>
</svg>
